<?xml version="1.0" encoding="utf-8" standalone="no"?>
<!DOCTYPE svg PUBLIC "-//W3C//DTD SVG 1.1//EN"
  "http://www.w3.org/Graphics/SVG/1.1/DTD/svg11.dtd">
<!-- Created with matplotlib (https://matplotlib.org/) -->
<svg height="432pt" version="1.1" viewBox="0 0 648 432" width="648pt" xmlns="http://www.w3.org/2000/svg" xmlns:xlink="http://www.w3.org/1999/xlink">
 <metadata>
  <rdf:RDF xmlns:cc="http://creativecommons.org/ns#" xmlns:dc="http://purl.org/dc/elements/1.1/" xmlns:rdf="http://www.w3.org/1999/02/22-rdf-syntax-ns#">
   <cc:Work>
    <dc:type rdf:resource="http://purl.org/dc/dcmitype/StillImage"/>
    <dc:date>2021-09-23T14:54:39.651115</dc:date>
    <dc:format>image/svg+xml</dc:format>
    <dc:creator>
     <cc:Agent>
      <dc:title>Matplotlib v3.3.4, https://matplotlib.org/</dc:title>
     </cc:Agent>
    </dc:creator>
   </cc:Work>
  </rdf:RDF>
 </metadata>
 <defs>
  <style type="text/css">*{stroke-linecap:butt;stroke-linejoin:round;}</style>
 </defs>
 <g id="figure_1">
  <g id="patch_1">
   <path d="M 0 432 
L 648 432 
L 648 0 
L 0 0 
z
" style="fill:#ffffff;"/>
  </g>
  <g id="axes_1">
   <g id="patch_2">
    <path d="M 81 149.675294 
L 583.2 149.675294 
L 583.2 51.84 
L 81 51.84 
z
" style="fill:#ffffff;"/>
   </g>
   <g id="matplotlib.axis_1">
    <g id="xtick_1">
     <g id="line2d_1">
      <path clip-path="url(#p510b2cbbe6)" d="M 81 149.675294 
L 81 51.84 
" style="fill:none;stroke:#b0b0b0;stroke-linecap:square;stroke-width:0.8;"/>
     </g>
     <g id="line2d_2">
      <defs>
       <path d="M 0 0 
L 0 3.5 
" id="m87b9e07c99" style="stroke:#000000;stroke-width:0.8;"/>
      </defs>
      <g>
       <use style="stroke:#000000;stroke-width:0.8;" x="81" xlink:href="#m87b9e07c99" y="149.675294"/>
      </g>
     </g>
     <g id="text_1">
      <!-- 0 -->
      <g transform="translate(77.81875 164.273732)scale(0.1 -0.1)">
       <defs>
        <path d="M 31.78125 66.40625 
Q 24.171875 66.40625 20.328125 58.90625 
Q 16.5 51.421875 16.5 36.375 
Q 16.5 21.390625 20.328125 13.890625 
Q 24.171875 6.390625 31.78125 6.390625 
Q 39.453125 6.390625 43.28125 13.890625 
Q 47.125 21.390625 47.125 36.375 
Q 47.125 51.421875 43.28125 58.90625 
Q 39.453125 66.40625 31.78125 66.40625 
z
M 31.78125 74.21875 
Q 44.046875 74.21875 50.515625 64.515625 
Q 56.984375 54.828125 56.984375 36.375 
Q 56.984375 17.96875 50.515625 8.265625 
Q 44.046875 -1.421875 31.78125 -1.421875 
Q 19.53125 -1.421875 13.0625 8.265625 
Q 6.59375 17.96875 6.59375 36.375 
Q 6.59375 54.828125 13.0625 64.515625 
Q 19.53125 74.21875 31.78125 74.21875 
z
" id="DejaVuSans-48"/>
       </defs>
       <use xlink:href="#DejaVuSans-48"/>
      </g>
     </g>
    </g>
    <g id="xtick_2">
     <g id="line2d_3">
      <path clip-path="url(#p510b2cbbe6)" d="M 186.062762 149.675294 
L 186.062762 51.84 
" style="fill:none;stroke:#b0b0b0;stroke-linecap:square;stroke-width:0.8;"/>
     </g>
     <g id="line2d_4">
      <g>
       <use style="stroke:#000000;stroke-width:0.8;" x="186.062762" xlink:href="#m87b9e07c99" y="149.675294"/>
      </g>
     </g>
     <g id="text_2">
      <!-- 50 -->
      <g transform="translate(179.700262 164.273732)scale(0.1 -0.1)">
       <defs>
        <path d="M 10.796875 72.90625 
L 49.515625 72.90625 
L 49.515625 64.59375 
L 19.828125 64.59375 
L 19.828125 46.734375 
Q 21.96875 47.46875 24.109375 47.828125 
Q 26.265625 48.1875 28.421875 48.1875 
Q 40.625 48.1875 47.75 41.5 
Q 54.890625 34.8125 54.890625 23.390625 
Q 54.890625 11.625 47.5625 5.09375 
Q 40.234375 -1.421875 26.90625 -1.421875 
Q 22.3125 -1.421875 17.546875 -0.640625 
Q 12.796875 0.140625 7.71875 1.703125 
L 7.71875 11.625 
Q 12.109375 9.234375 16.796875 8.0625 
Q 21.484375 6.890625 26.703125 6.890625 
Q 35.15625 6.890625 40.078125 11.328125 
Q 45.015625 15.765625 45.015625 23.390625 
Q 45.015625 31 40.078125 35.4375 
Q 35.15625 39.890625 26.703125 39.890625 
Q 22.75 39.890625 18.8125 39.015625 
Q 14.890625 38.140625 10.796875 36.28125 
z
" id="DejaVuSans-53"/>
       </defs>
       <use xlink:href="#DejaVuSans-53"/>
       <use x="63.623047" xlink:href="#DejaVuSans-48"/>
      </g>
     </g>
    </g>
    <g id="xtick_3">
     <g id="line2d_5">
      <path clip-path="url(#p510b2cbbe6)" d="M 291.125523 149.675294 
L 291.125523 51.84 
" style="fill:none;stroke:#b0b0b0;stroke-linecap:square;stroke-width:0.8;"/>
     </g>
     <g id="line2d_6">
      <g>
       <use style="stroke:#000000;stroke-width:0.8;" x="291.125523" xlink:href="#m87b9e07c99" y="149.675294"/>
      </g>
     </g>
     <g id="text_3">
      <!-- 100 -->
      <g transform="translate(281.581773 164.273732)scale(0.1 -0.1)">
       <defs>
        <path d="M 12.40625 8.296875 
L 28.515625 8.296875 
L 28.515625 63.921875 
L 10.984375 60.40625 
L 10.984375 69.390625 
L 28.421875 72.90625 
L 38.28125 72.90625 
L 38.28125 8.296875 
L 54.390625 8.296875 
L 54.390625 0 
L 12.40625 0 
z
" id="DejaVuSans-49"/>
       </defs>
       <use xlink:href="#DejaVuSans-49"/>
       <use x="63.623047" xlink:href="#DejaVuSans-48"/>
       <use x="127.246094" xlink:href="#DejaVuSans-48"/>
      </g>
     </g>
    </g>
    <g id="xtick_4">
     <g id="line2d_7">
      <path clip-path="url(#p510b2cbbe6)" d="M 396.188285 149.675294 
L 396.188285 51.84 
" style="fill:none;stroke:#b0b0b0;stroke-linecap:square;stroke-width:0.8;"/>
     </g>
     <g id="line2d_8">
      <g>
       <use style="stroke:#000000;stroke-width:0.8;" x="396.188285" xlink:href="#m87b9e07c99" y="149.675294"/>
      </g>
     </g>
     <g id="text_4">
      <!-- 150 -->
      <g transform="translate(386.644535 164.273732)scale(0.1 -0.1)">
       <use xlink:href="#DejaVuSans-49"/>
       <use x="63.623047" xlink:href="#DejaVuSans-53"/>
       <use x="127.246094" xlink:href="#DejaVuSans-48"/>
      </g>
     </g>
    </g>
    <g id="xtick_5">
     <g id="line2d_9">
      <path clip-path="url(#p510b2cbbe6)" d="M 501.251046 149.675294 
L 501.251046 51.84 
" style="fill:none;stroke:#b0b0b0;stroke-linecap:square;stroke-width:0.8;"/>
     </g>
     <g id="line2d_10">
      <g>
       <use style="stroke:#000000;stroke-width:0.8;" x="501.251046" xlink:href="#m87b9e07c99" y="149.675294"/>
      </g>
     </g>
     <g id="text_5">
      <!-- 200 -->
      <g transform="translate(491.707296 164.273732)scale(0.1 -0.1)">
       <defs>
        <path d="M 19.1875 8.296875 
L 53.609375 8.296875 
L 53.609375 0 
L 7.328125 0 
L 7.328125 8.296875 
Q 12.9375 14.109375 22.625 23.890625 
Q 32.328125 33.6875 34.8125 36.53125 
Q 39.546875 41.84375 41.421875 45.53125 
Q 43.3125 49.21875 43.3125 52.78125 
Q 43.3125 58.59375 39.234375 62.25 
Q 35.15625 65.921875 28.609375 65.921875 
Q 23.96875 65.921875 18.8125 64.3125 
Q 13.671875 62.703125 7.8125 59.421875 
L 7.8125 69.390625 
Q 13.765625 71.78125 18.9375 73 
Q 24.125 74.21875 28.421875 74.21875 
Q 39.75 74.21875 46.484375 68.546875 
Q 53.21875 62.890625 53.21875 53.421875 
Q 53.21875 48.921875 51.53125 44.890625 
Q 49.859375 40.875 45.40625 35.40625 
Q 44.1875 33.984375 37.640625 27.21875 
Q 31.109375 20.453125 19.1875 8.296875 
z
" id="DejaVuSans-50"/>
       </defs>
       <use xlink:href="#DejaVuSans-50"/>
       <use x="63.623047" xlink:href="#DejaVuSans-48"/>
       <use x="127.246094" xlink:href="#DejaVuSans-48"/>
      </g>
     </g>
    </g>
   </g>
   <g id="matplotlib.axis_2">
    <g id="ytick_1">
     <g id="line2d_11">
      <path clip-path="url(#p510b2cbbe6)" d="M 81 149.675294 
L 583.2 149.675294 
" style="fill:none;stroke:#b0b0b0;stroke-linecap:square;stroke-width:0.8;"/>
     </g>
     <g id="line2d_12">
      <defs>
       <path d="M 0 0 
L -3.5 0 
" id="m9c578ff247" style="stroke:#000000;stroke-width:0.8;"/>
      </defs>
      <g>
       <use style="stroke:#000000;stroke-width:0.8;" x="81" xlink:href="#m9c578ff247" y="149.675294"/>
      </g>
     </g>
     <g id="text_6">
      <!-- 150 -->
      <g transform="translate(54.9125 153.474513)scale(0.1 -0.1)">
       <use xlink:href="#DejaVuSans-49"/>
       <use x="63.623047" xlink:href="#DejaVuSans-53"/>
       <use x="127.246094" xlink:href="#DejaVuSans-48"/>
      </g>
     </g>
    </g>
    <g id="ytick_2">
     <g id="line2d_13">
      <path clip-path="url(#p510b2cbbe6)" d="M 81 105.204706 
L 583.2 105.204706 
" style="fill:none;stroke:#b0b0b0;stroke-linecap:square;stroke-width:0.8;"/>
     </g>
     <g id="line2d_14">
      <g>
       <use style="stroke:#000000;stroke-width:0.8;" x="81" xlink:href="#m9c578ff247" y="105.204706"/>
      </g>
     </g>
     <g id="text_7">
      <!-- 160 -->
      <g transform="translate(54.9125 109.003925)scale(0.1 -0.1)">
       <defs>
        <path d="M 33.015625 40.375 
Q 26.375 40.375 22.484375 35.828125 
Q 18.609375 31.296875 18.609375 23.390625 
Q 18.609375 15.53125 22.484375 10.953125 
Q 26.375 6.390625 33.015625 6.390625 
Q 39.65625 6.390625 43.53125 10.953125 
Q 47.40625 15.53125 47.40625 23.390625 
Q 47.40625 31.296875 43.53125 35.828125 
Q 39.65625 40.375 33.015625 40.375 
z
M 52.59375 71.296875 
L 52.59375 62.3125 
Q 48.875 64.0625 45.09375 64.984375 
Q 41.3125 65.921875 37.59375 65.921875 
Q 27.828125 65.921875 22.671875 59.328125 
Q 17.53125 52.734375 16.796875 39.40625 
Q 19.671875 43.65625 24.015625 45.921875 
Q 28.375 48.1875 33.59375 48.1875 
Q 44.578125 48.1875 50.953125 41.515625 
Q 57.328125 34.859375 57.328125 23.390625 
Q 57.328125 12.15625 50.6875 5.359375 
Q 44.046875 -1.421875 33.015625 -1.421875 
Q 20.359375 -1.421875 13.671875 8.265625 
Q 6.984375 17.96875 6.984375 36.375 
Q 6.984375 53.65625 15.1875 63.9375 
Q 23.390625 74.21875 37.203125 74.21875 
Q 40.921875 74.21875 44.703125 73.484375 
Q 48.484375 72.75 52.59375 71.296875 
z
" id="DejaVuSans-54"/>
       </defs>
       <use xlink:href="#DejaVuSans-49"/>
       <use x="63.623047" xlink:href="#DejaVuSans-54"/>
       <use x="127.246094" xlink:href="#DejaVuSans-48"/>
      </g>
     </g>
    </g>
    <g id="ytick_3">
     <g id="line2d_15">
      <path clip-path="url(#p510b2cbbe6)" d="M 81 60.734118 
L 583.2 60.734118 
" style="fill:none;stroke:#b0b0b0;stroke-linecap:square;stroke-width:0.8;"/>
     </g>
     <g id="line2d_16">
      <g>
       <use style="stroke:#000000;stroke-width:0.8;" x="81" xlink:href="#m9c578ff247" y="60.734118"/>
      </g>
     </g>
     <g id="text_8">
      <!-- 170 -->
      <g transform="translate(54.9125 64.533336)scale(0.1 -0.1)">
       <defs>
        <path d="M 8.203125 72.90625 
L 55.078125 72.90625 
L 55.078125 68.703125 
L 28.609375 0 
L 18.3125 0 
L 43.21875 64.59375 
L 8.203125 64.59375 
z
" id="DejaVuSans-55"/>
       </defs>
       <use xlink:href="#DejaVuSans-49"/>
       <use x="63.623047" xlink:href="#DejaVuSans-55"/>
       <use x="127.246094" xlink:href="#DejaVuSans-48"/>
      </g>
     </g>
    </g>
    <g id="text_9">
     <!-- Intensivity, red -->
     <g style="fill:#d62728;" transform="translate(48.832812 138.24046)rotate(-90)scale(0.1 -0.1)">
      <defs>
       <path d="M 9.8125 72.90625 
L 19.671875 72.90625 
L 19.671875 0 
L 9.8125 0 
z
" id="DejaVuSans-73"/>
       <path d="M 54.890625 33.015625 
L 54.890625 0 
L 45.90625 0 
L 45.90625 32.71875 
Q 45.90625 40.484375 42.875 44.328125 
Q 39.84375 48.1875 33.796875 48.1875 
Q 26.515625 48.1875 22.3125 43.546875 
Q 18.109375 38.921875 18.109375 30.90625 
L 18.109375 0 
L 9.078125 0 
L 9.078125 54.6875 
L 18.109375 54.6875 
L 18.109375 46.1875 
Q 21.34375 51.125 25.703125 53.5625 
Q 30.078125 56 35.796875 56 
Q 45.21875 56 50.046875 50.171875 
Q 54.890625 44.34375 54.890625 33.015625 
z
" id="DejaVuSans-110"/>
       <path d="M 18.3125 70.21875 
L 18.3125 54.6875 
L 36.8125 54.6875 
L 36.8125 47.703125 
L 18.3125 47.703125 
L 18.3125 18.015625 
Q 18.3125 11.328125 20.140625 9.421875 
Q 21.96875 7.515625 27.59375 7.515625 
L 36.8125 7.515625 
L 36.8125 0 
L 27.59375 0 
Q 17.1875 0 13.234375 3.875 
Q 9.28125 7.765625 9.28125 18.015625 
L 9.28125 47.703125 
L 2.6875 47.703125 
L 2.6875 54.6875 
L 9.28125 54.6875 
L 9.28125 70.21875 
z
" id="DejaVuSans-116"/>
       <path d="M 56.203125 29.59375 
L 56.203125 25.203125 
L 14.890625 25.203125 
Q 15.484375 15.921875 20.484375 11.0625 
Q 25.484375 6.203125 34.421875 6.203125 
Q 39.59375 6.203125 44.453125 7.46875 
Q 49.3125 8.734375 54.109375 11.28125 
L 54.109375 2.78125 
Q 49.265625 0.734375 44.1875 -0.34375 
Q 39.109375 -1.421875 33.890625 -1.421875 
Q 20.796875 -1.421875 13.15625 6.1875 
Q 5.515625 13.8125 5.515625 26.8125 
Q 5.515625 40.234375 12.765625 48.109375 
Q 20.015625 56 32.328125 56 
Q 43.359375 56 49.78125 48.890625 
Q 56.203125 41.796875 56.203125 29.59375 
z
M 47.21875 32.234375 
Q 47.125 39.59375 43.09375 43.984375 
Q 39.0625 48.390625 32.421875 48.390625 
Q 24.90625 48.390625 20.390625 44.140625 
Q 15.875 39.890625 15.1875 32.171875 
z
" id="DejaVuSans-101"/>
       <path d="M 44.28125 53.078125 
L 44.28125 44.578125 
Q 40.484375 46.53125 36.375 47.5 
Q 32.28125 48.484375 27.875 48.484375 
Q 21.1875 48.484375 17.84375 46.4375 
Q 14.5 44.390625 14.5 40.28125 
Q 14.5 37.15625 16.890625 35.375 
Q 19.28125 33.59375 26.515625 31.984375 
L 29.59375 31.296875 
Q 39.15625 29.25 43.1875 25.515625 
Q 47.21875 21.78125 47.21875 15.09375 
Q 47.21875 7.46875 41.1875 3.015625 
Q 35.15625 -1.421875 24.609375 -1.421875 
Q 20.21875 -1.421875 15.453125 -0.5625 
Q 10.6875 0.296875 5.421875 2 
L 5.421875 11.28125 
Q 10.40625 8.6875 15.234375 7.390625 
Q 20.0625 6.109375 24.8125 6.109375 
Q 31.15625 6.109375 34.5625 8.28125 
Q 37.984375 10.453125 37.984375 14.40625 
Q 37.984375 18.0625 35.515625 20.015625 
Q 33.0625 21.96875 24.703125 23.78125 
L 21.578125 24.515625 
Q 13.234375 26.265625 9.515625 29.90625 
Q 5.8125 33.546875 5.8125 39.890625 
Q 5.8125 47.609375 11.28125 51.796875 
Q 16.75 56 26.8125 56 
Q 31.78125 56 36.171875 55.265625 
Q 40.578125 54.546875 44.28125 53.078125 
z
" id="DejaVuSans-115"/>
       <path d="M 9.421875 54.6875 
L 18.40625 54.6875 
L 18.40625 0 
L 9.421875 0 
z
M 9.421875 75.984375 
L 18.40625 75.984375 
L 18.40625 64.59375 
L 9.421875 64.59375 
z
" id="DejaVuSans-105"/>
       <path d="M 2.984375 54.6875 
L 12.5 54.6875 
L 29.59375 8.796875 
L 46.6875 54.6875 
L 56.203125 54.6875 
L 35.6875 0 
L 23.484375 0 
z
" id="DejaVuSans-118"/>
       <path d="M 32.171875 -5.078125 
Q 28.375 -14.84375 24.75 -17.8125 
Q 21.140625 -20.796875 15.09375 -20.796875 
L 7.90625 -20.796875 
L 7.90625 -13.28125 
L 13.1875 -13.28125 
Q 16.890625 -13.28125 18.9375 -11.515625 
Q 21 -9.765625 23.484375 -3.21875 
L 25.09375 0.875 
L 2.984375 54.6875 
L 12.5 54.6875 
L 29.59375 11.921875 
L 46.6875 54.6875 
L 56.203125 54.6875 
z
" id="DejaVuSans-121"/>
       <path d="M 11.71875 12.40625 
L 22.015625 12.40625 
L 22.015625 4 
L 14.015625 -11.625 
L 7.71875 -11.625 
L 11.71875 4 
z
" id="DejaVuSans-44"/>
       <path id="DejaVuSans-32"/>
       <path d="M 41.109375 46.296875 
Q 39.59375 47.171875 37.8125 47.578125 
Q 36.03125 48 33.890625 48 
Q 26.265625 48 22.1875 43.046875 
Q 18.109375 38.09375 18.109375 28.8125 
L 18.109375 0 
L 9.078125 0 
L 9.078125 54.6875 
L 18.109375 54.6875 
L 18.109375 46.1875 
Q 20.953125 51.171875 25.484375 53.578125 
Q 30.03125 56 36.53125 56 
Q 37.453125 56 38.578125 55.875 
Q 39.703125 55.765625 41.0625 55.515625 
z
" id="DejaVuSans-114"/>
       <path d="M 45.40625 46.390625 
L 45.40625 75.984375 
L 54.390625 75.984375 
L 54.390625 0 
L 45.40625 0 
L 45.40625 8.203125 
Q 42.578125 3.328125 38.25 0.953125 
Q 33.9375 -1.421875 27.875 -1.421875 
Q 17.96875 -1.421875 11.734375 6.484375 
Q 5.515625 14.40625 5.515625 27.296875 
Q 5.515625 40.1875 11.734375 48.09375 
Q 17.96875 56 27.875 56 
Q 33.9375 56 38.25 53.625 
Q 42.578125 51.265625 45.40625 46.390625 
z
M 14.796875 27.296875 
Q 14.796875 17.390625 18.875 11.75 
Q 22.953125 6.109375 30.078125 6.109375 
Q 37.203125 6.109375 41.296875 11.75 
Q 45.40625 17.390625 45.40625 27.296875 
Q 45.40625 37.203125 41.296875 42.84375 
Q 37.203125 48.484375 30.078125 48.484375 
Q 22.953125 48.484375 18.875 42.84375 
Q 14.796875 37.203125 14.796875 27.296875 
z
" id="DejaVuSans-100"/>
      </defs>
      <use xlink:href="#DejaVuSans-73"/>
      <use x="29.492188" xlink:href="#DejaVuSans-110"/>
      <use x="92.871094" xlink:href="#DejaVuSans-116"/>
      <use x="132.080078" xlink:href="#DejaVuSans-101"/>
      <use x="193.603516" xlink:href="#DejaVuSans-110"/>
      <use x="256.982422" xlink:href="#DejaVuSans-115"/>
      <use x="309.082031" xlink:href="#DejaVuSans-105"/>
      <use x="336.865234" xlink:href="#DejaVuSans-118"/>
      <use x="396.044922" xlink:href="#DejaVuSans-105"/>
      <use x="423.828125" xlink:href="#DejaVuSans-116"/>
      <use x="463.037109" xlink:href="#DejaVuSans-121"/>
      <use x="522.216797" xlink:href="#DejaVuSans-44"/>
      <use x="554.003906" xlink:href="#DejaVuSans-32"/>
      <use x="585.791016" xlink:href="#DejaVuSans-114"/>
      <use x="624.654297" xlink:href="#DejaVuSans-101"/>
      <use x="686.177734" xlink:href="#DejaVuSans-100"/>
     </g>
    </g>
   </g>
   <g id="line2d_17">
    <path clip-path="url(#p510b2cbbe6)" d="M 81 82.969412 
L 85.20251 82.969412 
L 87.303766 74.075294 
L 95.708787 74.075294 
L 97.810042 87.416471 
L 99.911297 96.310588 
L 102.012552 109.651765 
L 106.215063 118.545882 
L 108.316318 127.44 
L 110.417573 131.887059 
L 112.518828 131.887059 
L 114.620084 109.651765 
L 116.721339 109.651765 
L 118.822594 100.757647 
L 120.923849 100.757647 
L 123.025105 96.310588 
L 125.12636 87.416471 
L 127.227615 82.969412 
L 129.32887 82.969412 
L 131.430126 69.628235 
L 133.531381 69.628235 
L 135.632636 74.075294 
L 137.733891 82.969412 
L 139.835146 87.416471 
L 141.936402 87.416471 
L 144.037657 96.310588 
L 146.138912 96.310588 
L 148.240167 109.651765 
L 150.341423 109.651765 
L 152.442678 118.545882 
L 158.746444 131.887059 
L 160.847699 145.228235 
L 162.948954 145.228235 
L 165.050209 131.887059 
L 169.25272 131.887059 
L 171.353975 127.44 
L 175.556485 109.651765 
L 177.657741 96.310588 
L 179.758996 91.863529 
L 181.860251 96.310588 
L 186.062762 96.310588 
L 188.164017 91.863529 
L 190.265272 91.863529 
L 192.366527 87.416471 
L 194.467782 91.863529 
L 198.670293 91.863529 
L 200.771548 100.757647 
L 207.075314 100.757647 
L 209.176569 105.204706 
L 213.379079 105.204706 
L 215.480335 114.098824 
L 217.58159 118.545882 
L 219.682845 127.44 
L 225.986611 127.44 
L 228.087866 136.334118 
L 230.189121 140.781176 
L 232.290377 136.334118 
L 236.492887 136.334118 
L 238.594142 131.887059 
L 242.796653 131.887059 
L 244.897908 127.44 
L 246.999163 127.44 
L 251.201674 118.545882 
L 253.302929 118.545882 
L 259.606695 105.204706 
L 261.70795 105.204706 
L 263.809205 100.757647 
L 265.91046 87.416471 
L 268.011715 87.416471 
L 270.112971 82.969412 
L 272.214226 82.969412 
L 278.517992 69.628235 
L 280.619247 69.628235 
L 282.720502 65.181176 
L 303.733054 65.181176 
L 305.83431 60.734118 
L 310.03682 60.734118 
L 312.138075 56.287059 
L 314.239331 56.287059 
L 316.340586 65.181176 
L 320.543096 65.181176 
L 322.644351 69.628235 
L 324.745607 69.628235 
L 326.846862 74.075294 
L 347.859414 74.075294 
L 349.960669 65.181176 
L 366.770711 65.181176 
L 368.871967 69.628235 
L 373.074477 69.628235 
L 375.175732 74.075294 
L 381.479498 74.075294 
L 383.580753 78.522353 
L 385.682008 78.522353 
L 391.985774 91.863529 
L 394.087029 91.863529 
L 396.188285 96.310588 
L 398.28954 96.310588 
L 400.390795 100.757647 
L 402.49205 100.757647 
L 408.795816 114.098824 
L 410.897071 114.098824 
L 412.998326 118.545882 
L 415.099582 118.545882 
L 417.200837 136.334118 
L 419.302092 136.334118 
L 421.403347 140.781176 
L 425.605858 140.781176 
L 427.707113 145.228235 
L 436.112134 145.228235 
L 438.213389 140.781176 
L 440.314644 140.781176 
L 446.61841 127.44 
L 448.719665 127.44 
L 450.820921 122.992941 
L 452.922176 122.992941 
L 457.124686 114.098824 
L 459.225941 114.098824 
L 463.428452 105.204706 
L 482.339749 105.204706 
L 484.441004 87.416471 
L 488.643515 96.310588 
L 490.74477 109.651765 
L 492.846025 114.098824 
L 494.94728 122.992941 
L 497.048536 118.545882 
L 499.149791 122.992941 
L 501.251046 131.887059 
L 503.352301 131.887059 
L 505.453556 140.781176 
L 509.656067 140.781176 
L 511.757322 131.887059 
L 515.959833 122.992941 
L 522.263598 122.992941 
L 524.364854 118.545882 
L 530.668619 118.545882 
L 532.769874 109.651765 
L 536.972385 118.545882 
L 539.07364 118.545882 
L 541.174895 122.992941 
L 545.377406 122.992941 
L 547.478661 118.545882 
L 549.579916 118.545882 
L 551.681172 136.334118 
L 557.984937 136.334118 
L 560.086192 131.887059 
L 562.187448 131.887059 
L 564.288703 127.44 
L 566.389958 127.44 
L 568.491213 118.545882 
L 570.592469 114.098824 
L 572.693724 114.098824 
L 574.794979 105.204706 
L 576.896234 105.204706 
L 578.99749 100.757647 
L 583.2 100.757647 
L 583.2 100.757647 
" style="fill:none;stroke:#d62728;stroke-linecap:square;stroke-width:1.5;"/>
   </g>
   <g id="patch_3">
    <path d="M 81 149.675294 
L 81 51.84 
" style="fill:none;stroke:#000000;stroke-linecap:square;stroke-linejoin:miter;stroke-width:0.8;"/>
   </g>
   <g id="patch_4">
    <path d="M 583.2 149.675294 
L 583.2 51.84 
" style="fill:none;stroke:#000000;stroke-linecap:square;stroke-linejoin:miter;stroke-width:0.8;"/>
   </g>
   <g id="patch_5">
    <path d="M 81 149.675294 
L 583.2 149.675294 
" style="fill:none;stroke:#000000;stroke-linecap:square;stroke-linejoin:miter;stroke-width:0.8;"/>
   </g>
   <g id="patch_6">
    <path d="M 81 51.84 
L 583.2 51.84 
" style="fill:none;stroke:#000000;stroke-linecap:square;stroke-linejoin:miter;stroke-width:0.8;"/>
   </g>
  </g>
  <g id="axes_2">
   <g id="patch_7">
    <path d="M 81 267.077647 
L 583.2 267.077647 
L 583.2 169.242353 
L 81 169.242353 
z
" style="fill:#ffffff;"/>
   </g>
   <g id="matplotlib.axis_3">
    <g id="xtick_6">
     <g id="line2d_18">
      <path clip-path="url(#pde22877f2d)" d="M 81 267.077647 
L 81 169.242353 
" style="fill:none;stroke:#b0b0b0;stroke-linecap:square;stroke-width:0.8;"/>
     </g>
     <g id="line2d_19">
      <g>
       <use style="stroke:#000000;stroke-width:0.8;" x="81" xlink:href="#m87b9e07c99" y="267.077647"/>
      </g>
     </g>
     <g id="text_10">
      <!-- 0 -->
      <g transform="translate(77.81875 281.676085)scale(0.1 -0.1)">
       <use xlink:href="#DejaVuSans-48"/>
      </g>
     </g>
    </g>
    <g id="xtick_7">
     <g id="line2d_20">
      <path clip-path="url(#pde22877f2d)" d="M 186.062762 267.077647 
L 186.062762 169.242353 
" style="fill:none;stroke:#b0b0b0;stroke-linecap:square;stroke-width:0.8;"/>
     </g>
     <g id="line2d_21">
      <g>
       <use style="stroke:#000000;stroke-width:0.8;" x="186.062762" xlink:href="#m87b9e07c99" y="267.077647"/>
      </g>
     </g>
     <g id="text_11">
      <!-- 50 -->
      <g transform="translate(179.700262 281.676085)scale(0.1 -0.1)">
       <use xlink:href="#DejaVuSans-53"/>
       <use x="63.623047" xlink:href="#DejaVuSans-48"/>
      </g>
     </g>
    </g>
    <g id="xtick_8">
     <g id="line2d_22">
      <path clip-path="url(#pde22877f2d)" d="M 291.125523 267.077647 
L 291.125523 169.242353 
" style="fill:none;stroke:#b0b0b0;stroke-linecap:square;stroke-width:0.8;"/>
     </g>
     <g id="line2d_23">
      <g>
       <use style="stroke:#000000;stroke-width:0.8;" x="291.125523" xlink:href="#m87b9e07c99" y="267.077647"/>
      </g>
     </g>
     <g id="text_12">
      <!-- 100 -->
      <g transform="translate(281.581773 281.676085)scale(0.1 -0.1)">
       <use xlink:href="#DejaVuSans-49"/>
       <use x="63.623047" xlink:href="#DejaVuSans-48"/>
       <use x="127.246094" xlink:href="#DejaVuSans-48"/>
      </g>
     </g>
    </g>
    <g id="xtick_9">
     <g id="line2d_24">
      <path clip-path="url(#pde22877f2d)" d="M 396.188285 267.077647 
L 396.188285 169.242353 
" style="fill:none;stroke:#b0b0b0;stroke-linecap:square;stroke-width:0.8;"/>
     </g>
     <g id="line2d_25">
      <g>
       <use style="stroke:#000000;stroke-width:0.8;" x="396.188285" xlink:href="#m87b9e07c99" y="267.077647"/>
      </g>
     </g>
     <g id="text_13">
      <!-- 150 -->
      <g transform="translate(386.644535 281.676085)scale(0.1 -0.1)">
       <use xlink:href="#DejaVuSans-49"/>
       <use x="63.623047" xlink:href="#DejaVuSans-53"/>
       <use x="127.246094" xlink:href="#DejaVuSans-48"/>
      </g>
     </g>
    </g>
    <g id="xtick_10">
     <g id="line2d_26">
      <path clip-path="url(#pde22877f2d)" d="M 501.251046 267.077647 
L 501.251046 169.242353 
" style="fill:none;stroke:#b0b0b0;stroke-linecap:square;stroke-width:0.8;"/>
     </g>
     <g id="line2d_27">
      <g>
       <use style="stroke:#000000;stroke-width:0.8;" x="501.251046" xlink:href="#m87b9e07c99" y="267.077647"/>
      </g>
     </g>
     <g id="text_14">
      <!-- 200 -->
      <g transform="translate(491.707296 281.676085)scale(0.1 -0.1)">
       <use xlink:href="#DejaVuSans-50"/>
       <use x="63.623047" xlink:href="#DejaVuSans-48"/>
       <use x="127.246094" xlink:href="#DejaVuSans-48"/>
      </g>
     </g>
    </g>
   </g>
   <g id="matplotlib.axis_4">
    <g id="ytick_4">
     <g id="line2d_28">
      <path clip-path="url(#pde22877f2d)" d="M 81 257.689412 
L 583.2 257.689412 
" style="fill:none;stroke:#b0b0b0;stroke-linecap:square;stroke-width:0.8;"/>
     </g>
     <g id="line2d_29">
      <g>
       <use style="stroke:#000000;stroke-width:0.8;" x="81" xlink:href="#m9c578ff247" y="257.689412"/>
      </g>
     </g>
     <g id="text_15">
      <!-- 140 -->
      <g transform="translate(54.9125 261.488631)scale(0.1 -0.1)">
       <defs>
        <path d="M 37.796875 64.3125 
L 12.890625 25.390625 
L 37.796875 25.390625 
z
M 35.203125 72.90625 
L 47.609375 72.90625 
L 47.609375 25.390625 
L 58.015625 25.390625 
L 58.015625 17.1875 
L 47.609375 17.1875 
L 47.609375 0 
L 37.796875 0 
L 37.796875 17.1875 
L 4.890625 17.1875 
L 4.890625 26.703125 
z
" id="DejaVuSans-52"/>
       </defs>
       <use xlink:href="#DejaVuSans-49"/>
       <use x="63.623047" xlink:href="#DejaVuSans-52"/>
       <use x="127.246094" xlink:href="#DejaVuSans-48"/>
      </g>
     </g>
    </g>
    <g id="ytick_5">
     <g id="line2d_30">
      <path clip-path="url(#pde22877f2d)" d="M 81 232.983529 
L 583.2 232.983529 
" style="fill:none;stroke:#b0b0b0;stroke-linecap:square;stroke-width:0.8;"/>
     </g>
     <g id="line2d_31">
      <g>
       <use style="stroke:#000000;stroke-width:0.8;" x="81" xlink:href="#m9c578ff247" y="232.983529"/>
      </g>
     </g>
     <g id="text_16">
      <!-- 145 -->
      <g transform="translate(54.9125 236.782748)scale(0.1 -0.1)">
       <use xlink:href="#DejaVuSans-49"/>
       <use x="63.623047" xlink:href="#DejaVuSans-52"/>
       <use x="127.246094" xlink:href="#DejaVuSans-53"/>
      </g>
     </g>
    </g>
    <g id="ytick_6">
     <g id="line2d_32">
      <path clip-path="url(#pde22877f2d)" d="M 81 208.277647 
L 583.2 208.277647 
" style="fill:none;stroke:#b0b0b0;stroke-linecap:square;stroke-width:0.8;"/>
     </g>
     <g id="line2d_33">
      <g>
       <use style="stroke:#000000;stroke-width:0.8;" x="81" xlink:href="#m9c578ff247" y="208.277647"/>
      </g>
     </g>
     <g id="text_17">
      <!-- 150 -->
      <g transform="translate(54.9125 212.076866)scale(0.1 -0.1)">
       <use xlink:href="#DejaVuSans-49"/>
       <use x="63.623047" xlink:href="#DejaVuSans-53"/>
       <use x="127.246094" xlink:href="#DejaVuSans-48"/>
      </g>
     </g>
    </g>
    <g id="ytick_7">
     <g id="line2d_34">
      <path clip-path="url(#pde22877f2d)" d="M 81 183.571765 
L 583.2 183.571765 
" style="fill:none;stroke:#b0b0b0;stroke-linecap:square;stroke-width:0.8;"/>
     </g>
     <g id="line2d_35">
      <g>
       <use style="stroke:#000000;stroke-width:0.8;" x="81" xlink:href="#m9c578ff247" y="183.571765"/>
      </g>
     </g>
     <g id="text_18">
      <!-- 155 -->
      <g transform="translate(54.9125 187.370983)scale(0.1 -0.1)">
       <use xlink:href="#DejaVuSans-49"/>
       <use x="63.623047" xlink:href="#DejaVuSans-53"/>
       <use x="127.246094" xlink:href="#DejaVuSans-53"/>
      </g>
     </g>
    </g>
    <g id="text_19">
     <!-- Intensivity, green -->
     <g style="fill:#2ca02c;" transform="translate(48.832812 261.888125)rotate(-90)scale(0.1 -0.1)">
      <defs>
       <path d="M 45.40625 27.984375 
Q 45.40625 37.75 41.375 43.109375 
Q 37.359375 48.484375 30.078125 48.484375 
Q 22.859375 48.484375 18.828125 43.109375 
Q 14.796875 37.75 14.796875 27.984375 
Q 14.796875 18.265625 18.828125 12.890625 
Q 22.859375 7.515625 30.078125 7.515625 
Q 37.359375 7.515625 41.375 12.890625 
Q 45.40625 18.265625 45.40625 27.984375 
z
M 54.390625 6.78125 
Q 54.390625 -7.171875 48.1875 -13.984375 
Q 42 -20.796875 29.203125 -20.796875 
Q 24.46875 -20.796875 20.265625 -20.09375 
Q 16.0625 -19.390625 12.109375 -17.921875 
L 12.109375 -9.1875 
Q 16.0625 -11.328125 19.921875 -12.34375 
Q 23.78125 -13.375 27.78125 -13.375 
Q 36.625 -13.375 41.015625 -8.765625 
Q 45.40625 -4.15625 45.40625 5.171875 
L 45.40625 9.625 
Q 42.625 4.78125 38.28125 2.390625 
Q 33.9375 0 27.875 0 
Q 17.828125 0 11.671875 7.65625 
Q 5.515625 15.328125 5.515625 27.984375 
Q 5.515625 40.671875 11.671875 48.328125 
Q 17.828125 56 27.875 56 
Q 33.9375 56 38.28125 53.609375 
Q 42.625 51.21875 45.40625 46.390625 
L 45.40625 54.6875 
L 54.390625 54.6875 
z
" id="DejaVuSans-103"/>
      </defs>
      <use xlink:href="#DejaVuSans-73"/>
      <use x="29.492188" xlink:href="#DejaVuSans-110"/>
      <use x="92.871094" xlink:href="#DejaVuSans-116"/>
      <use x="132.080078" xlink:href="#DejaVuSans-101"/>
      <use x="193.603516" xlink:href="#DejaVuSans-110"/>
      <use x="256.982422" xlink:href="#DejaVuSans-115"/>
      <use x="309.082031" xlink:href="#DejaVuSans-105"/>
      <use x="336.865234" xlink:href="#DejaVuSans-118"/>
      <use x="396.044922" xlink:href="#DejaVuSans-105"/>
      <use x="423.828125" xlink:href="#DejaVuSans-116"/>
      <use x="463.037109" xlink:href="#DejaVuSans-121"/>
      <use x="522.216797" xlink:href="#DejaVuSans-44"/>
      <use x="554.003906" xlink:href="#DejaVuSans-32"/>
      <use x="585.791016" xlink:href="#DejaVuSans-103"/>
      <use x="649.267578" xlink:href="#DejaVuSans-114"/>
      <use x="688.130859" xlink:href="#DejaVuSans-101"/>
      <use x="749.654297" xlink:href="#DejaVuSans-101"/>
      <use x="811.177734" xlink:href="#DejaVuSans-110"/>
     </g>
    </g>
   </g>
   <g id="line2d_36">
    <path clip-path="url(#pde22877f2d)" d="M 81 213.218824 
L 95.708787 213.218824 
L 97.810042 228.042353 
L 99.911297 228.042353 
L 102.012552 218.16 
L 104.113808 218.16 
L 110.417573 203.336471 
L 112.518828 203.336471 
L 114.620084 223.101176 
L 120.923849 223.101176 
L 123.025105 228.042353 
L 125.12636 228.042353 
L 127.227615 232.983529 
L 129.32887 232.983529 
L 131.430126 218.16 
L 133.531381 218.16 
L 139.835146 203.336471 
L 146.138912 203.336471 
L 148.240167 218.16 
L 152.442678 218.16 
L 154.543933 228.042353 
L 156.645188 223.101176 
L 158.746444 228.042353 
L 167.151464 228.042353 
L 169.25272 237.924706 
L 173.45523 247.807059 
L 175.556485 242.865882 
L 177.657741 242.865882 
L 179.758996 237.924706 
L 181.860251 223.101176 
L 186.062762 223.101176 
L 188.164017 218.16 
L 190.265272 218.16 
L 194.467782 208.277647 
L 198.670293 208.277647 
L 200.771548 203.336471 
L 202.872803 208.277647 
L 213.379079 208.277647 
L 215.480335 228.042353 
L 217.58159 232.983529 
L 219.682845 242.865882 
L 225.986611 242.865882 
L 228.087866 252.748235 
L 230.189121 257.689412 
L 232.290377 252.748235 
L 236.492887 252.748235 
L 238.594142 247.807059 
L 242.796653 247.807059 
L 244.897908 242.865882 
L 246.999163 242.865882 
L 249.100418 247.807059 
L 251.201674 242.865882 
L 253.302929 242.865882 
L 259.606695 228.042353 
L 261.70795 228.042353 
L 263.809205 223.101176 
L 265.91046 208.277647 
L 268.011715 208.277647 
L 270.112971 203.336471 
L 272.214226 203.336471 
L 278.517992 188.512941 
L 280.619247 188.512941 
L 282.720502 183.571765 
L 303.733054 183.571765 
L 305.83431 178.630588 
L 310.03682 178.630588 
L 312.138075 173.689412 
L 314.239331 173.689412 
L 316.340586 183.571765 
L 320.543096 183.571765 
L 322.644351 188.512941 
L 324.745607 188.512941 
L 326.846862 193.454118 
L 347.859414 193.454118 
L 349.960669 183.571765 
L 366.770711 183.571765 
L 368.871967 188.512941 
L 373.074477 188.512941 
L 375.175732 193.454118 
L 381.479498 193.454118 
L 383.580753 198.395294 
L 385.682008 198.395294 
L 391.985774 213.218824 
L 394.087029 213.218824 
L 396.188285 218.16 
L 398.28954 218.16 
L 400.390795 223.101176 
L 402.49205 223.101176 
L 408.795816 237.924706 
L 410.897071 237.924706 
L 412.998326 242.865882 
L 415.099582 242.865882 
L 417.200837 247.807059 
L 419.302092 247.807059 
L 421.403347 252.748235 
L 425.605858 252.748235 
L 427.707113 257.689412 
L 429.808368 257.689412 
L 431.909623 262.630588 
L 436.112134 262.630588 
L 438.213389 257.689412 
L 440.314644 257.689412 
L 446.61841 242.865882 
L 448.719665 242.865882 
L 450.820921 232.983529 
L 452.922176 232.983529 
L 457.124686 223.101176 
L 459.225941 223.101176 
L 463.428452 213.218824 
L 473.934728 213.218824 
L 476.035983 208.277647 
L 482.339749 208.277647 
L 484.441004 232.983529 
L 488.643515 242.865882 
L 490.74477 252.748235 
L 492.846025 257.689412 
L 497.048536 247.807059 
L 499.149791 247.807059 
L 501.251046 242.865882 
L 503.352301 242.865882 
L 505.453556 247.807059 
L 507.554812 247.807059 
L 511.757322 228.042353 
L 515.959833 218.16 
L 518.061088 223.101176 
L 522.263598 223.101176 
L 524.364854 228.042353 
L 526.466109 223.101176 
L 530.668619 223.101176 
L 536.972385 237.924706 
L 539.07364 247.807059 
L 543.276151 257.689412 
L 545.377406 257.689412 
L 547.478661 252.748235 
L 549.579916 252.748235 
L 551.681172 237.924706 
L 553.782427 232.983529 
L 562.187448 232.983529 
L 564.288703 237.924706 
L 568.491213 237.924706 
L 570.592469 242.865882 
L 572.693724 242.865882 
L 574.794979 247.807059 
L 576.896234 247.807059 
L 578.99749 252.748235 
L 581.098745 252.748235 
L 583.2 257.689412 
L 583.2 257.689412 
" style="fill:none;stroke:#2ca02c;stroke-linecap:square;stroke-width:1.5;"/>
   </g>
   <g id="patch_8">
    <path d="M 81 267.077647 
L 81 169.242353 
" style="fill:none;stroke:#000000;stroke-linecap:square;stroke-linejoin:miter;stroke-width:0.8;"/>
   </g>
   <g id="patch_9">
    <path d="M 583.2 267.077647 
L 583.2 169.242353 
" style="fill:none;stroke:#000000;stroke-linecap:square;stroke-linejoin:miter;stroke-width:0.8;"/>
   </g>
   <g id="patch_10">
    <path d="M 81 267.077647 
L 583.2 267.077647 
" style="fill:none;stroke:#000000;stroke-linecap:square;stroke-linejoin:miter;stroke-width:0.8;"/>
   </g>
   <g id="patch_11">
    <path d="M 81 169.242353 
L 583.2 169.242353 
" style="fill:none;stroke:#000000;stroke-linecap:square;stroke-linejoin:miter;stroke-width:0.8;"/>
   </g>
  </g>
  <g id="axes_3">
   <g id="patch_12">
    <path d="M 81 384.48 
L 583.2 384.48 
L 583.2 286.644706 
L 81 286.644706 
z
" style="fill:#ffffff;"/>
   </g>
   <g id="matplotlib.axis_5">
    <g id="xtick_11">
     <g id="line2d_37">
      <path clip-path="url(#p4e3b7300f4)" d="M 81 384.48 
L 81 286.644706 
" style="fill:none;stroke:#b0b0b0;stroke-linecap:square;stroke-width:0.8;"/>
     </g>
     <g id="line2d_38">
      <g>
       <use style="stroke:#000000;stroke-width:0.8;" x="81" xlink:href="#m87b9e07c99" y="384.48"/>
      </g>
     </g>
     <g id="text_20">
      <!-- 0 -->
      <g transform="translate(77.81875 399.078438)scale(0.1 -0.1)">
       <use xlink:href="#DejaVuSans-48"/>
      </g>
     </g>
    </g>
    <g id="xtick_12">
     <g id="line2d_39">
      <path clip-path="url(#p4e3b7300f4)" d="M 186.062762 384.48 
L 186.062762 286.644706 
" style="fill:none;stroke:#b0b0b0;stroke-linecap:square;stroke-width:0.8;"/>
     </g>
     <g id="line2d_40">
      <g>
       <use style="stroke:#000000;stroke-width:0.8;" x="186.062762" xlink:href="#m87b9e07c99" y="384.48"/>
      </g>
     </g>
     <g id="text_21">
      <!-- 50 -->
      <g transform="translate(179.700262 399.078438)scale(0.1 -0.1)">
       <use xlink:href="#DejaVuSans-53"/>
       <use x="63.623047" xlink:href="#DejaVuSans-48"/>
      </g>
     </g>
    </g>
    <g id="xtick_13">
     <g id="line2d_41">
      <path clip-path="url(#p4e3b7300f4)" d="M 291.125523 384.48 
L 291.125523 286.644706 
" style="fill:none;stroke:#b0b0b0;stroke-linecap:square;stroke-width:0.8;"/>
     </g>
     <g id="line2d_42">
      <g>
       <use style="stroke:#000000;stroke-width:0.8;" x="291.125523" xlink:href="#m87b9e07c99" y="384.48"/>
      </g>
     </g>
     <g id="text_22">
      <!-- 100 -->
      <g transform="translate(281.581773 399.078438)scale(0.1 -0.1)">
       <use xlink:href="#DejaVuSans-49"/>
       <use x="63.623047" xlink:href="#DejaVuSans-48"/>
       <use x="127.246094" xlink:href="#DejaVuSans-48"/>
      </g>
     </g>
    </g>
    <g id="xtick_14">
     <g id="line2d_43">
      <path clip-path="url(#p4e3b7300f4)" d="M 396.188285 384.48 
L 396.188285 286.644706 
" style="fill:none;stroke:#b0b0b0;stroke-linecap:square;stroke-width:0.8;"/>
     </g>
     <g id="line2d_44">
      <g>
       <use style="stroke:#000000;stroke-width:0.8;" x="396.188285" xlink:href="#m87b9e07c99" y="384.48"/>
      </g>
     </g>
     <g id="text_23">
      <!-- 150 -->
      <g transform="translate(386.644535 399.078438)scale(0.1 -0.1)">
       <use xlink:href="#DejaVuSans-49"/>
       <use x="63.623047" xlink:href="#DejaVuSans-53"/>
       <use x="127.246094" xlink:href="#DejaVuSans-48"/>
      </g>
     </g>
    </g>
    <g id="xtick_15">
     <g id="line2d_45">
      <path clip-path="url(#p4e3b7300f4)" d="M 501.251046 384.48 
L 501.251046 286.644706 
" style="fill:none;stroke:#b0b0b0;stroke-linecap:square;stroke-width:0.8;"/>
     </g>
     <g id="line2d_46">
      <g>
       <use style="stroke:#000000;stroke-width:0.8;" x="501.251046" xlink:href="#m87b9e07c99" y="384.48"/>
      </g>
     </g>
     <g id="text_24">
      <!-- 200 -->
      <g transform="translate(491.707296 399.078438)scale(0.1 -0.1)">
       <use xlink:href="#DejaVuSans-50"/>
       <use x="63.623047" xlink:href="#DejaVuSans-48"/>
       <use x="127.246094" xlink:href="#DejaVuSans-48"/>
      </g>
     </g>
    </g>
    <g id="text_25">
     <!-- Pixels -->
     <g transform="translate(317.935156 412.756563)scale(0.1 -0.1)">
      <defs>
       <path d="M 19.671875 64.796875 
L 19.671875 37.40625 
L 32.078125 37.40625 
Q 38.96875 37.40625 42.71875 40.96875 
Q 46.484375 44.53125 46.484375 51.125 
Q 46.484375 57.671875 42.71875 61.234375 
Q 38.96875 64.796875 32.078125 64.796875 
z
M 9.8125 72.90625 
L 32.078125 72.90625 
Q 44.34375 72.90625 50.609375 67.359375 
Q 56.890625 61.8125 56.890625 51.125 
Q 56.890625 40.328125 50.609375 34.8125 
Q 44.34375 29.296875 32.078125 29.296875 
L 19.671875 29.296875 
L 19.671875 0 
L 9.8125 0 
z
" id="DejaVuSans-80"/>
       <path d="M 54.890625 54.6875 
L 35.109375 28.078125 
L 55.90625 0 
L 45.3125 0 
L 29.390625 21.484375 
L 13.484375 0 
L 2.875 0 
L 24.125 28.609375 
L 4.6875 54.6875 
L 15.28125 54.6875 
L 29.78125 35.203125 
L 44.28125 54.6875 
z
" id="DejaVuSans-120"/>
       <path d="M 9.421875 75.984375 
L 18.40625 75.984375 
L 18.40625 0 
L 9.421875 0 
z
" id="DejaVuSans-108"/>
      </defs>
      <use xlink:href="#DejaVuSans-80"/>
      <use x="58.052734" xlink:href="#DejaVuSans-105"/>
      <use x="85.835938" xlink:href="#DejaVuSans-120"/>
      <use x="141.890625" xlink:href="#DejaVuSans-101"/>
      <use x="203.414062" xlink:href="#DejaVuSans-108"/>
      <use x="231.197266" xlink:href="#DejaVuSans-115"/>
     </g>
    </g>
   </g>
   <g id="matplotlib.axis_6">
    <g id="ytick_8">
     <g id="line2d_47">
      <path clip-path="url(#p4e3b7300f4)" d="M 81 360.268235 
L 583.2 360.268235 
" style="fill:none;stroke:#b0b0b0;stroke-linecap:square;stroke-width:0.8;"/>
     </g>
     <g id="line2d_48">
      <g>
       <use style="stroke:#000000;stroke-width:0.8;" x="81" xlink:href="#m9c578ff247" y="360.268235"/>
      </g>
     </g>
     <g id="text_26">
      <!-- 140 -->
      <g transform="translate(54.9125 364.067454)scale(0.1 -0.1)">
       <use xlink:href="#DejaVuSans-49"/>
       <use x="63.623047" xlink:href="#DejaVuSans-52"/>
       <use x="127.246094" xlink:href="#DejaVuSans-48"/>
      </g>
     </g>
    </g>
    <g id="ytick_9">
     <g id="line2d_49">
      <path clip-path="url(#p4e3b7300f4)" d="M 81 335.562353 
L 583.2 335.562353 
" style="fill:none;stroke:#b0b0b0;stroke-linecap:square;stroke-width:0.8;"/>
     </g>
     <g id="line2d_50">
      <g>
       <use style="stroke:#000000;stroke-width:0.8;" x="81" xlink:href="#m9c578ff247" y="335.562353"/>
      </g>
     </g>
     <g id="text_27">
      <!-- 145 -->
      <g transform="translate(54.9125 339.361572)scale(0.1 -0.1)">
       <use xlink:href="#DejaVuSans-49"/>
       <use x="63.623047" xlink:href="#DejaVuSans-52"/>
       <use x="127.246094" xlink:href="#DejaVuSans-53"/>
      </g>
     </g>
    </g>
    <g id="ytick_10">
     <g id="line2d_51">
      <path clip-path="url(#p4e3b7300f4)" d="M 81 310.856471 
L 583.2 310.856471 
" style="fill:none;stroke:#b0b0b0;stroke-linecap:square;stroke-width:0.8;"/>
     </g>
     <g id="line2d_52">
      <g>
       <use style="stroke:#000000;stroke-width:0.8;" x="81" xlink:href="#m9c578ff247" y="310.856471"/>
      </g>
     </g>
     <g id="text_28">
      <!-- 150 -->
      <g transform="translate(54.9125 314.655689)scale(0.1 -0.1)">
       <use xlink:href="#DejaVuSans-49"/>
       <use x="63.623047" xlink:href="#DejaVuSans-53"/>
       <use x="127.246094" xlink:href="#DejaVuSans-48"/>
      </g>
     </g>
    </g>
    <g id="text_29">
     <!-- Intensivity, blue -->
     <g style="fill:#1f77b4;" transform="translate(48.832812 375.660009)rotate(-90)scale(0.1 -0.1)">
      <defs>
       <path d="M 48.6875 27.296875 
Q 48.6875 37.203125 44.609375 42.84375 
Q 40.53125 48.484375 33.40625 48.484375 
Q 26.265625 48.484375 22.1875 42.84375 
Q 18.109375 37.203125 18.109375 27.296875 
Q 18.109375 17.390625 22.1875 11.75 
Q 26.265625 6.109375 33.40625 6.109375 
Q 40.53125 6.109375 44.609375 11.75 
Q 48.6875 17.390625 48.6875 27.296875 
z
M 18.109375 46.390625 
Q 20.953125 51.265625 25.265625 53.625 
Q 29.59375 56 35.59375 56 
Q 45.5625 56 51.78125 48.09375 
Q 58.015625 40.1875 58.015625 27.296875 
Q 58.015625 14.40625 51.78125 6.484375 
Q 45.5625 -1.421875 35.59375 -1.421875 
Q 29.59375 -1.421875 25.265625 0.953125 
Q 20.953125 3.328125 18.109375 8.203125 
L 18.109375 0 
L 9.078125 0 
L 9.078125 75.984375 
L 18.109375 75.984375 
z
" id="DejaVuSans-98"/>
       <path d="M 8.5 21.578125 
L 8.5 54.6875 
L 17.484375 54.6875 
L 17.484375 21.921875 
Q 17.484375 14.15625 20.5 10.265625 
Q 23.53125 6.390625 29.59375 6.390625 
Q 36.859375 6.390625 41.078125 11.03125 
Q 45.3125 15.671875 45.3125 23.6875 
L 45.3125 54.6875 
L 54.296875 54.6875 
L 54.296875 0 
L 45.3125 0 
L 45.3125 8.40625 
Q 42.046875 3.421875 37.71875 1 
Q 33.40625 -1.421875 27.6875 -1.421875 
Q 18.265625 -1.421875 13.375 4.4375 
Q 8.5 10.296875 8.5 21.578125 
z
M 31.109375 56 
z
" id="DejaVuSans-117"/>
      </defs>
      <use xlink:href="#DejaVuSans-73"/>
      <use x="29.492188" xlink:href="#DejaVuSans-110"/>
      <use x="92.871094" xlink:href="#DejaVuSans-116"/>
      <use x="132.080078" xlink:href="#DejaVuSans-101"/>
      <use x="193.603516" xlink:href="#DejaVuSans-110"/>
      <use x="256.982422" xlink:href="#DejaVuSans-115"/>
      <use x="309.082031" xlink:href="#DejaVuSans-105"/>
      <use x="336.865234" xlink:href="#DejaVuSans-118"/>
      <use x="396.044922" xlink:href="#DejaVuSans-105"/>
      <use x="423.828125" xlink:href="#DejaVuSans-116"/>
      <use x="463.037109" xlink:href="#DejaVuSans-121"/>
      <use x="522.216797" xlink:href="#DejaVuSans-44"/>
      <use x="554.003906" xlink:href="#DejaVuSans-32"/>
      <use x="585.791016" xlink:href="#DejaVuSans-98"/>
      <use x="649.267578" xlink:href="#DejaVuSans-108"/>
      <use x="677.050781" xlink:href="#DejaVuSans-117"/>
      <use x="740.429688" xlink:href="#DejaVuSans-101"/>
     </g>
    </g>
   </g>
   <g id="line2d_53">
    <path clip-path="url(#p4e3b7300f4)" d="M 81 315.797647 
L 95.708787 315.797647 
L 97.810042 330.621176 
L 112.518828 330.621176 
L 114.620084 325.68 
L 123.025105 325.68 
L 125.12636 330.621176 
L 129.32887 330.621176 
L 131.430126 325.68 
L 137.733891 325.68 
L 139.835146 335.562353 
L 146.138912 335.562353 
L 148.240167 340.503529 
L 150.341423 340.503529 
L 152.442678 345.444706 
L 154.543933 340.503529 
L 156.645188 340.503529 
L 160.847699 350.385882 
L 165.050209 340.503529 
L 167.151464 340.503529 
L 169.25272 335.562353 
L 173.45523 335.562353 
L 179.758996 320.738824 
L 181.860251 340.503529 
L 183.961506 340.503529 
L 186.062762 350.385882 
L 188.164017 345.444706 
L 190.265272 355.327059 
L 192.366527 350.385882 
L 194.467782 355.327059 
L 196.569038 355.327059 
L 198.670293 350.385882 
L 200.771548 350.385882 
L 207.075314 320.738824 
L 209.176569 315.797647 
L 211.277824 305.915294 
L 213.379079 305.915294 
L 215.480335 320.738824 
L 217.58159 325.68 
L 219.682845 335.562353 
L 225.986611 335.562353 
L 228.087866 345.444706 
L 230.189121 350.385882 
L 232.290377 345.444706 
L 236.492887 345.444706 
L 238.594142 340.503529 
L 242.796653 340.503529 
L 244.897908 335.562353 
L 246.999163 335.562353 
L 249.100418 365.209412 
L 251.201674 360.268235 
L 253.302929 360.268235 
L 259.606695 345.444706 
L 261.70795 345.444706 
L 263.809205 340.503529 
L 265.91046 325.68 
L 268.011715 325.68 
L 270.112971 320.738824 
L 272.214226 320.738824 
L 278.517992 305.915294 
L 280.619247 305.915294 
L 282.720502 300.974118 
L 303.733054 300.974118 
L 305.83431 296.032941 
L 310.03682 296.032941 
L 312.138075 291.091765 
L 314.239331 291.091765 
L 316.340586 300.974118 
L 320.543096 300.974118 
L 322.644351 305.915294 
L 324.745607 305.915294 
L 326.846862 310.856471 
L 347.859414 310.856471 
L 349.960669 300.974118 
L 366.770711 300.974118 
L 368.871967 305.915294 
L 373.074477 305.915294 
L 375.175732 310.856471 
L 381.479498 310.856471 
L 383.580753 315.797647 
L 385.682008 315.797647 
L 391.985774 330.621176 
L 394.087029 330.621176 
L 396.188285 335.562353 
L 398.28954 335.562353 
L 400.390795 340.503529 
L 402.49205 340.503529 
L 408.795816 355.327059 
L 410.897071 355.327059 
L 412.998326 360.268235 
L 415.099582 360.268235 
L 417.200837 370.150588 
L 419.302092 370.150588 
L 421.403347 375.091765 
L 423.504603 365.209412 
L 425.605858 365.209412 
L 427.707113 370.150588 
L 429.808368 370.150588 
L 431.909623 365.209412 
L 436.112134 365.209412 
L 438.213389 350.385882 
L 440.314644 350.385882 
L 446.61841 335.562353 
L 448.719665 335.562353 
L 450.820921 345.444706 
L 452.922176 345.444706 
L 457.124686 335.562353 
L 459.225941 335.562353 
L 461.327197 340.503529 
L 463.428452 335.562353 
L 465.529707 335.562353 
L 467.630962 345.444706 
L 473.934728 345.444706 
L 476.035983 355.327059 
L 484.441004 355.327059 
L 488.643515 365.209412 
L 490.74477 375.091765 
L 492.846025 370.150588 
L 494.94728 370.150588 
L 497.048536 365.209412 
L 499.149791 365.209412 
L 501.251046 355.327059 
L 503.352301 355.327059 
L 505.453556 360.268235 
L 509.656067 350.385882 
L 511.757322 340.503529 
L 515.959833 330.621176 
L 518.061088 350.385882 
L 520.162343 350.385882 
L 522.263598 360.268235 
L 524.364854 360.268235 
L 526.466109 370.150588 
L 528.567364 370.150588 
L 530.668619 375.091765 
L 534.87113 375.091765 
L 536.972385 380.032941 
L 541.174895 370.150588 
L 543.276151 360.268235 
L 545.377406 355.327059 
L 547.478661 340.503529 
L 549.579916 340.503529 
L 551.681172 335.562353 
L 553.782427 345.444706 
L 555.883682 345.444706 
L 557.984937 350.385882 
L 562.187448 370.150588 
L 572.693724 370.150588 
L 576.896234 350.385882 
L 578.99749 345.444706 
L 581.098745 345.444706 
L 583.2 335.562353 
L 583.2 335.562353 
" style="fill:none;stroke:#1f77b4;stroke-linecap:square;stroke-width:1.5;"/>
   </g>
   <g id="patch_13">
    <path d="M 81 384.48 
L 81 286.644706 
" style="fill:none;stroke:#000000;stroke-linecap:square;stroke-linejoin:miter;stroke-width:0.8;"/>
   </g>
   <g id="patch_14">
    <path d="M 583.2 384.48 
L 583.2 286.644706 
" style="fill:none;stroke:#000000;stroke-linecap:square;stroke-linejoin:miter;stroke-width:0.8;"/>
   </g>
   <g id="patch_15">
    <path d="M 81 384.48 
L 583.2 384.48 
" style="fill:none;stroke:#000000;stroke-linecap:square;stroke-linejoin:miter;stroke-width:0.8;"/>
   </g>
   <g id="patch_16">
    <path d="M 81 286.644706 
L 583.2 286.644706 
" style="fill:none;stroke:#000000;stroke-linecap:square;stroke-linejoin:miter;stroke-width:0.8;"/>
   </g>
  </g>
  <g id="text_30">
   <!-- Newton's rings -->
   <g transform="translate(212.835938 -63.604687)scale(0.3 -0.3)">
    <defs>
     <path d="M 9.8125 72.90625 
L 23.09375 72.90625 
L 55.421875 11.921875 
L 55.421875 72.90625 
L 64.984375 72.90625 
L 64.984375 0 
L 51.703125 0 
L 19.390625 60.984375 
L 19.390625 0 
L 9.8125 0 
z
" id="DejaVuSans-78"/>
     <path d="M 4.203125 54.6875 
L 13.1875 54.6875 
L 24.421875 12.015625 
L 35.59375 54.6875 
L 46.1875 54.6875 
L 57.421875 12.015625 
L 68.609375 54.6875 
L 77.59375 54.6875 
L 63.28125 0 
L 52.6875 0 
L 40.921875 44.828125 
L 29.109375 0 
L 18.5 0 
z
" id="DejaVuSans-119"/>
     <path d="M 30.609375 48.390625 
Q 23.390625 48.390625 19.1875 42.75 
Q 14.984375 37.109375 14.984375 27.296875 
Q 14.984375 17.484375 19.15625 11.84375 
Q 23.34375 6.203125 30.609375 6.203125 
Q 37.796875 6.203125 41.984375 11.859375 
Q 46.1875 17.53125 46.1875 27.296875 
Q 46.1875 37.015625 41.984375 42.703125 
Q 37.796875 48.390625 30.609375 48.390625 
z
M 30.609375 56 
Q 42.328125 56 49.015625 48.375 
Q 55.71875 40.765625 55.71875 27.296875 
Q 55.71875 13.875 49.015625 6.21875 
Q 42.328125 -1.421875 30.609375 -1.421875 
Q 18.84375 -1.421875 12.171875 6.21875 
Q 5.515625 13.875 5.515625 27.296875 
Q 5.515625 40.765625 12.171875 48.375 
Q 18.84375 56 30.609375 56 
z
" id="DejaVuSans-111"/>
     <path d="M 17.921875 72.90625 
L 17.921875 45.796875 
L 9.625 45.796875 
L 9.625 72.90625 
z
" id="DejaVuSans-39"/>
    </defs>
    <use xlink:href="#DejaVuSans-78"/>
    <use x="74.804688" xlink:href="#DejaVuSans-101"/>
    <use x="136.328125" xlink:href="#DejaVuSans-119"/>
    <use x="218.115234" xlink:href="#DejaVuSans-116"/>
    <use x="257.324219" xlink:href="#DejaVuSans-111"/>
    <use x="318.505859" xlink:href="#DejaVuSans-110"/>
    <use x="381.884766" xlink:href="#DejaVuSans-39"/>
    <use x="409.375" xlink:href="#DejaVuSans-115"/>
    <use x="461.474609" xlink:href="#DejaVuSans-32"/>
    <use x="493.261719" xlink:href="#DejaVuSans-114"/>
    <use x="534.375" xlink:href="#DejaVuSans-105"/>
    <use x="562.158203" xlink:href="#DejaVuSans-110"/>
    <use x="625.537109" xlink:href="#DejaVuSans-103"/>
    <use x="689.013672" xlink:href="#DejaVuSans-115"/>
   </g>
  </g>
 </g>
 <defs>
  <clipPath id="p510b2cbbe6">
   <rect height="97.835294" width="502.2" x="81" y="51.84"/>
  </clipPath>
  <clipPath id="pde22877f2d">
   <rect height="97.835294" width="502.2" x="81" y="169.242353"/>
  </clipPath>
  <clipPath id="p4e3b7300f4">
   <rect height="97.835294" width="502.2" x="81" y="286.644706"/>
  </clipPath>
 </defs>
</svg>
